<?xml version="1.0" standalone="no"?>
<!DOCTYPE svg PUBLIC "-//W3C//DTD SVG 20010904//EN"
 "http://www.w3.org/TR/2001/REC-SVG-20010904/DTD/svg10.dtd">
<svg version="1.0" xmlns="http://www.w3.org/2000/svg"
 width="800.000000pt" height="800.000000pt" viewBox="0 0 800.000000 800.000000"
 preserveAspectRatio="xMidYMid meet">
<metadata>
Created by potrace 1.16, written by Peter Selinger 2001-2019
</metadata>
<g transform="translate(0.000000,800.000000) scale(0.100000,-0.100000)"
fill="#d60a2e" stroke="none">
<path d="M3615 7884 c-352 -39 -689 -122 -1015 -251 -1317 -521 -2230 -1700
-2417 -3120 -26 -198 -26 -758 0 -956 57 -430 175 -828 361 -1212 572 -1181
1685 -1979 3003 -2152 198 -26 758 -26 956 0 430 57 828 175 1212 361 1181
572 1979 1685 2152 3003 26 198 26 758 0 956 -57 430 -175 828 -361 1212 -571
1179 -1680 1975 -2996 2151 -174 23 -714 28 -895 8z m1640 -1945 c-8 -90 -15
-172 -15 -182 0 -19 7 -23 218 -113 61 -26 112 -51 112 -56 0 -4 -3 -8 -6 -8
-16 0 -312 -71 -331 -80 -20 -8 -23 -18 -24 -62 -1 -67 -23 -296 -30 -302 -3
-3 -33 43 -69 102 -35 59 -78 130 -96 159 l-33 51 -73 -18 c-154 -38 -267 -62
-277 -59 -6 2 44 66 110 142 l121 138 -95 157 c-52 86 -91 158 -86 160 4 2 82
-28 173 -66 l166 -70 121 140 c67 76 123 137 125 136 2 -2 -3 -78 -11 -169z
m-2782 -377 c17 -53 181 -560 284 -874 l45 -138 564 0 c310 0 564 -3 564 -7
-1 -5 -26 -26 -58 -48 -244 -169 -853 -619 -849 -628 2 -7 50 -154 107 -327
56 -173 132 -407 169 -520 38 -113 66 -208 64 -212 -2 -5 -37 16 -76 45 -40
29 -244 178 -455 331 l-383 278 -37 -26 c-20 -14 -226 -162 -457 -330 -231
-168 -421 -301 -423 -296 -3 8 49 172 279 876 32 99 59 185 59 190 -1 5 -206
158 -457 339 l-457 330 569 5 568 5 53 160 c48 149 221 683 266 820 10 33 21
66 23 73 9 25 20 11 38 -46z m3547 -648 l126 -125 164 80 c148 72 191 85 162
48 -5 -7 -44 -77 -86 -156 l-77 -144 118 -121 c65 -67 122 -124 127 -127 5 -4
7 -11 5 -16 -2 -6 -56 0 -129 13 -69 13 -150 26 -180 30 l-55 6 -84 -162 c-55
-108 -86 -158 -91 -149 -4 8 -18 88 -30 179 -12 91 -25 168 -29 172 -3 4 -74
19 -157 33 -239 41 -236 29 -41 125 92 45 167 85 167 88 0 4 -11 84 -25 177
-13 94 -25 174 -25 179 0 11 -10 20 140 -130z m120 -1501 c23 -65 52 -142 63
-172 l20 -54 184 7 c113 4 184 3 181 -3 -1 -5 -65 -57 -140 -116 -76 -59 -138
-111 -138 -115 0 -5 27 -83 61 -175 33 -92 59 -168 57 -171 -3 -2 -71 41 -152
96 -81 55 -153 100 -158 100 -6 0 -73 -50 -150 -111 -77 -61 -142 -108 -145
-106 -4 4 77 298 94 344 3 6 -62 56 -147 113 -83 55 -148 105 -145 110 4 6 50
10 103 10 53 0 133 3 177 6 l81 7 49 173 c28 96 53 174 56 174 4 0 25 -53 49
-117z m-896 -1110 c-4 -82 -8 -164 -8 -183 l-1 -34 168 -65 c92 -35 167 -68
167 -72 0 -5 -19 -13 -42 -19 -24 -6 -72 -19 -108 -29 -36 -10 -95 -27 -131
-37 l-66 -18 -7 -110 c-3 -61 -6 -144 -6 -183 0 -40 -4 -73 -9 -73 -6 0 -126
173 -203 293 -6 10 -18 8 -240 -55 -59 -16 -112 -28 -117 -26 -5 1 42 68 105
146 l115 144 -17 26 c-10 15 -56 85 -102 155 -47 70 -83 130 -80 132 4 4 100
-31 281 -102 61 -24 68 -25 80 -10 75 99 214 267 220 267 4 0 5 -66 1 -147z"/>
</g>
</svg>
