<svg width="150" height="62" viewBox="0 0 150 62" fill="none" xmlns="http://www.w3.org/2000/svg">
<g filter="url(#filter0_d_614_9341)">
<rect x="15" y="11" width="120" height="32" rx="16" fill="url(#paint0_linear_614_9341)"/>
<path d="M39.656 26.352C40.84 26.352 41.716 26.584 42.284 27.048C42.852 27.504 43.136 28.128 43.136 28.92C43.136 29.424 43.012 29.88 42.764 30.288C42.516 30.696 42.144 31.02 41.648 31.26C41.152 31.5 40.54 31.62 39.812 31.62C39.212 31.62 38.632 31.536 38.072 31.368C37.512 31.192 37.04 30.952 36.656 30.648L37.316 29.436C37.628 29.692 38 29.896 38.432 30.048C38.872 30.192 39.324 30.264 39.788 30.264C40.34 30.264 40.772 30.152 41.084 29.928C41.404 29.696 41.564 29.38 41.564 28.98C41.564 28.548 41.392 28.224 41.048 28.008C40.712 27.784 40.132 27.672 39.308 27.672H37.28L37.712 23.1H42.644V24.408H39.032L38.852 26.352H39.656ZM45.7906 27.624C45.1906 27.624 44.7066 27.412 44.3386 26.988C43.9706 26.564 43.7866 26.008 43.7866 25.32C43.7866 24.632 43.9706 24.076 44.3386 23.652C44.7066 23.228 45.1906 23.016 45.7906 23.016C46.3906 23.016 46.8746 23.228 47.2426 23.652C47.6186 24.068 47.8066 24.624 47.8066 25.32C47.8066 26.016 47.6186 26.576 47.2426 27C46.8746 27.416 46.3906 27.624 45.7906 27.624ZM50.8306 23.1H52.0066L46.2706 31.5H45.0946L50.8306 23.1ZM45.7906 26.784C46.1186 26.784 46.3706 26.656 46.5466 26.4C46.7306 26.144 46.8226 25.784 46.8226 25.32C46.8226 24.856 46.7306 24.496 46.5466 24.24C46.3706 23.984 46.1186 23.856 45.7906 23.856C45.4786 23.856 45.2266 23.988 45.0346 24.252C44.8506 24.508 44.7586 24.864 44.7586 25.32C44.7586 25.776 44.8506 26.136 45.0346 26.4C45.2266 26.656 45.4786 26.784 45.7906 26.784ZM51.2986 31.584C50.6986 31.584 50.2146 31.372 49.8466 30.948C49.4786 30.524 49.2946 29.968 49.2946 29.28C49.2946 28.592 49.4786 28.036 49.8466 27.612C50.2146 27.188 50.6986 26.976 51.2986 26.976C51.8986 26.976 52.3826 27.188 52.7506 27.612C53.1266 28.036 53.3146 28.592 53.3146 29.28C53.3146 29.968 53.1266 30.524 52.7506 30.948C52.3826 31.372 51.8986 31.584 51.2986 31.584ZM51.2986 30.744C51.6186 30.744 51.8706 30.616 52.0546 30.36C52.2386 30.096 52.3306 29.736 52.3306 29.28C52.3306 28.824 52.2386 28.468 52.0546 28.212C51.8706 27.948 51.6186 27.816 51.2986 27.816C50.9786 27.816 50.7266 27.944 50.5426 28.2C50.3586 28.456 50.2666 28.816 50.2666 29.28C50.2666 29.744 50.3586 30.104 50.5426 30.36C50.7266 30.616 50.9786 30.744 51.2986 30.744ZM58.1593 23.1H61.8313C62.7273 23.1 63.5233 23.276 64.2193 23.628C64.9153 23.972 65.4553 24.464 65.8393 25.104C66.2233 25.736 66.4153 26.468 66.4153 27.3C66.4153 28.132 66.2233 28.868 65.8393 29.508C65.4553 30.14 64.9153 30.632 64.2193 30.984C63.5233 31.328 62.7273 31.5 61.8313 31.5H58.1593V23.1ZM61.7593 30.18C62.3753 30.18 62.9153 30.064 63.3793 29.832C63.8513 29.592 64.2113 29.256 64.4593 28.824C64.7153 28.384 64.8433 27.876 64.8433 27.3C64.8433 26.724 64.7153 26.22 64.4593 25.788C64.2113 25.348 63.8513 25.012 63.3793 24.78C62.9153 24.54 62.3753 24.42 61.7593 24.42H59.7193V30.18H61.7593ZM67.9293 25.092H69.4293V31.5H67.9293V25.092ZM68.6853 24.036C68.4133 24.036 68.1853 23.952 68.0013 23.784C67.8173 23.608 67.7253 23.392 67.7253 23.136C67.7253 22.88 67.8173 22.668 68.0013 22.5C68.1853 22.324 68.4133 22.236 68.6853 22.236C68.9573 22.236 69.1853 22.32 69.3693 22.488C69.5533 22.648 69.6453 22.852 69.6453 23.1C69.6453 23.364 69.5533 23.588 69.3693 23.772C69.1933 23.948 68.9653 24.036 68.6853 24.036ZM73.3781 31.584C72.8581 31.584 72.3501 31.516 71.8541 31.38C71.3581 31.244 70.9621 31.072 70.6661 30.864L71.2421 29.724C71.5301 29.916 71.8741 30.072 72.2741 30.192C72.6821 30.304 73.0821 30.36 73.4741 30.36C74.3701 30.36 74.8181 30.124 74.8181 29.652C74.8181 29.428 74.7021 29.272 74.4701 29.184C74.2461 29.096 73.8821 29.012 73.3781 28.932C72.8501 28.852 72.4181 28.76 72.0821 28.656C71.7541 28.552 71.4661 28.372 71.2181 28.116C70.9781 27.852 70.8581 27.488 70.8581 27.024C70.8581 26.416 71.1101 25.932 71.6141 25.572C72.1261 25.204 72.8141 25.02 73.6781 25.02C74.1181 25.02 74.5581 25.072 74.9981 25.176C75.4381 25.272 75.7981 25.404 76.0781 25.572L75.5021 26.712C74.9581 26.392 74.3461 26.232 73.6661 26.232C73.2261 26.232 72.8901 26.3 72.6581 26.436C72.4341 26.564 72.3221 26.736 72.3221 26.952C72.3221 27.192 72.4421 27.364 72.6821 27.468C72.9301 27.564 73.3101 27.656 73.8221 27.744C74.3341 27.824 74.7541 27.916 75.0821 28.02C75.4101 28.124 75.6901 28.3 75.9221 28.548C76.1621 28.796 76.2821 29.148 76.2821 29.604C76.2821 30.204 76.0221 30.684 75.5021 31.044C74.9821 31.404 74.2741 31.584 73.3781 31.584ZM80.5138 31.584C79.8498 31.584 79.2538 31.444 78.7258 31.164C78.1978 30.884 77.7858 30.496 77.4898 30C77.1938 29.496 77.0458 28.928 77.0458 28.296C77.0458 27.664 77.1938 27.1 77.4898 26.604C77.7858 26.108 78.1938 25.72 78.7138 25.44C79.2418 25.16 79.8418 25.02 80.5138 25.02C81.1458 25.02 81.6978 25.148 82.1698 25.404C82.6498 25.66 83.0098 26.028 83.2498 26.508L82.0978 27.18C81.9138 26.884 81.6818 26.664 81.4018 26.52C81.1298 26.368 80.8298 26.292 80.5018 26.292C79.9418 26.292 79.4778 26.476 79.1098 26.844C78.7418 27.204 78.5578 27.688 78.5578 28.296C78.5578 28.904 78.7378 29.392 79.0978 29.76C79.4658 30.12 79.9338 30.3 80.5018 30.3C80.8298 30.3 81.1298 30.228 81.4018 30.084C81.6818 29.932 81.9138 29.708 82.0978 29.412L83.2498 30.084C83.0018 30.564 82.6378 30.936 82.1578 31.2C81.6858 31.456 81.1378 31.584 80.5138 31.584ZM87.3328 31.584C86.6848 31.584 86.1008 31.444 85.5808 31.164C85.0608 30.884 84.6528 30.496 84.3568 30C84.0688 29.496 83.9248 28.928 83.9248 28.296C83.9248 27.664 84.0688 27.1 84.3568 26.604C84.6528 26.108 85.0608 25.72 85.5808 25.44C86.1008 25.16 86.6848 25.02 87.3328 25.02C87.9888 25.02 88.5768 25.16 89.0968 25.44C89.6168 25.72 90.0208 26.108 90.3088 26.604C90.6048 27.1 90.7528 27.664 90.7528 28.296C90.7528 28.928 90.6048 29.496 90.3088 30C90.0208 30.496 89.6168 30.884 89.0968 31.164C88.5768 31.444 87.9888 31.584 87.3328 31.584ZM87.3328 30.3C87.8848 30.3 88.3408 30.116 88.7008 29.748C89.0608 29.38 89.2408 28.896 89.2408 28.296C89.2408 27.696 89.0608 27.212 88.7008 26.844C88.3408 26.476 87.8848 26.292 87.3328 26.292C86.7808 26.292 86.3248 26.476 85.9648 26.844C85.6128 27.212 85.4368 27.696 85.4368 28.296C85.4368 28.896 85.6128 29.38 85.9648 29.748C86.3248 30.116 86.7808 30.3 87.3328 30.3ZM98.3911 25.092V31.5H96.9631V30.684C96.7231 30.972 96.4231 31.196 96.0631 31.356C95.7031 31.508 95.3151 31.584 94.8991 31.584C94.0431 31.584 93.3671 31.348 92.8711 30.876C92.3831 30.396 92.1391 29.688 92.1391 28.752V25.092H93.6391V28.548C93.6391 29.124 93.7671 29.556 94.0231 29.844C94.2871 30.124 94.6591 30.264 95.1391 30.264C95.6751 30.264 96.0991 30.1 96.4111 29.772C96.7311 29.436 96.8911 28.956 96.8911 28.332V25.092H98.3911ZM103.991 25.02C104.799 25.02 105.447 25.256 105.935 25.728C106.423 26.2 106.667 26.9 106.667 27.828V31.5H105.167V28.02C105.167 27.46 105.035 27.04 104.771 26.76C104.507 26.472 104.131 26.328 103.643 26.328C103.091 26.328 102.655 26.496 102.335 26.832C102.015 27.16 101.855 27.636 101.855 28.26V31.5H100.355V25.092H101.783V25.92C102.031 25.624 102.343 25.4 102.719 25.248C103.095 25.096 103.519 25.02 103.991 25.02ZM112.422 31.152C112.246 31.296 112.03 31.404 111.774 31.476C111.526 31.548 111.262 31.584 110.982 31.584C110.278 31.584 109.734 31.4 109.35 31.032C108.966 30.664 108.774 30.128 108.774 29.424V26.34H107.718V25.14H108.774V23.676H110.274V25.14H111.99V26.34H110.274V29.388C110.274 29.7 110.35 29.94 110.502 30.108C110.654 30.268 110.874 30.348 111.162 30.348C111.498 30.348 111.778 30.26 112.002 30.084L112.422 31.152Z" fill="white"/>
</g>
<defs>
<filter id="filter0_d_614_9341" x="0" y="0" width="150" height="62" filterUnits="userSpaceOnUse" color-interpolation-filters="sRGB">
<feFlood flood-opacity="0" result="BackgroundImageFix"/>
<feColorMatrix in="SourceAlpha" type="matrix" values="0 0 0 0 0 0 0 0 0 0 0 0 0 0 0 0 0 0 127 0" result="hardAlpha"/>
<feOffset dy="4"/>
<feGaussianBlur stdDeviation="7.5"/>
<feComposite in2="hardAlpha" operator="out"/>
<feColorMatrix type="matrix" values="0 0 0 0 0.248374 0 0 0 0 0.591426 0 0 0 0 0.695833 0 0 0 0.3 0"/>
<feBlend mode="normal" in2="BackgroundImageFix" result="effect1_dropShadow_614_9341"/>
<feBlend mode="normal" in="SourceGraphic" in2="effect1_dropShadow_614_9341" result="shape"/>
</filter>
<linearGradient id="paint0_linear_614_9341" x1="5.25" y1="6.99999" x2="135.242" y2="52.3046" gradientUnits="userSpaceOnUse">
<stop stop-color="#20C0E3"/>
<stop offset="1" stop-color="#308FFF"/>
</linearGradient>
</defs>
</svg>
