<svg width="28" height="29" viewBox="0 0 28 29" fill="none" xmlns="http://www.w3.org/2000/svg">
<path d="M0 14.2133C0 21.9452 6.26801 28.2133 14 28.2133C21.732 28.2133 28 21.9452 28 14.2133C28 6.48127 21.732 0.213257 14 0.213257C6.26801 0.213257 0 6.48127 0 14.2133Z" fill="currentColor" fill-opacity="0.1"/>
<path d="M21 14.2133C21 10.3633 17.85 7.21326 14 7.21326C10.15 7.21326 7 10.3633 7 14.2133C7 17.7133 9.5375 20.6008 12.8625 21.1258V16.2258H11.1125V14.2133H12.8625V12.6383C12.8625 10.8883 13.9125 9.92576 15.4875 9.92576C16.275 9.92576 17.0625 10.1008 17.0625 10.1008V11.8508H16.1875C15.3125 11.8508 15.05 12.3758 15.05 12.9008V14.2133H16.975L16.625 16.2258H14.9625V21.2133C18.4625 20.6883 21 17.7133 21 14.2133Z" fill="currentColor"/>
</svg>
