<svg width="136" height="40" viewBox="0 0 136 40" fill="none" xmlns="http://www.w3.org/2000/svg">
<g clip-path="url(#clip0_221_3041)">
<path fill-rule="evenodd" clip-rule="evenodd" d="M130.664 40H5.68651C2.91843 40 0.66407 37.7456 0.66407 35V5C0.66407 2.24439 2.91843 0 5.68651 0H130.664C133.43 0 135.687 2.24439 135.687 5V35C135.687 37.7456 133.43 40 130.664 40Z" fill="black"/>
<path d="M68.8001 21.752C66.4481 21.752 64.5311 23.54 64.5311 26.005C64.5311 28.454 66.4481 30.258 68.8001 30.258C71.1521 30.258 73.0691 28.454 73.0691 26.005C73.0691 23.54 71.1521 21.752 68.8001 21.752ZM68.8001 28.583C67.5111 28.583 66.3991 27.52 66.3991 26.005C66.3991 24.474 67.5111 23.427 68.8001 23.427C70.0891 23.427 71.2001 24.474 71.2001 26.005C71.2001 27.519 70.0891 28.583 68.8001 28.583ZM59.4861 21.752C57.1341 21.752 55.2171 23.54 55.2171 26.005C55.2171 28.454 57.1341 30.258 59.4861 30.258C61.8381 30.258 63.7551 28.454 63.7551 26.005C63.7561 23.54 61.8381 21.752 59.4861 21.752ZM59.4861 28.583C58.1971 28.583 57.0861 27.52 57.0861 26.005C57.0861 24.474 58.1981 23.427 59.4861 23.427C60.7751 23.427 61.8861 24.474 61.8861 26.005C61.8871 27.519 60.7751 28.583 59.4861 28.583ZM48.4081 23.057V24.861H52.7261C52.5971 25.876 52.2591 26.617 51.7431 27.133C51.1151 27.761 50.1321 28.454 48.4081 28.454C45.7501 28.454 43.6721 26.311 43.6721 23.653C43.6721 20.995 45.7501 18.852 48.4081 18.852C49.8421 18.852 50.8891 19.416 51.6621 20.141L52.9351 18.868C51.8561 17.837 50.4221 17.047 48.4081 17.047C44.7671 17.047 41.7061 20.011 41.7061 23.652C41.7061 27.293 44.7671 30.257 48.4081 30.257C50.3731 30.257 51.8561 29.613 53.0161 28.404C54.2081 27.212 54.5791 25.536 54.5791 24.183C54.5791 23.764 54.5471 23.377 54.4821 23.055H48.4081V23.057ZM93.7161 24.458C93.3621 23.507 92.2821 21.751 90.0751 21.751C87.8841 21.751 86.0641 23.475 86.0641 26.004C86.0641 28.388 87.8681 30.257 90.2851 30.257C92.2341 30.257 93.3621 29.065 93.8291 28.372L92.3791 27.405C91.8961 28.114 91.2351 28.581 90.2851 28.581C89.3341 28.581 88.6581 28.146 88.2231 27.292L93.9101 24.94L93.7161 24.458ZM87.9161 25.876C87.8681 24.233 89.1891 23.395 90.1391 23.395C90.8801 23.395 91.5081 23.765 91.7181 24.297L87.9161 25.876ZM83.2921 30H85.1611V17.499H83.2921V30ZM80.2311 22.702H80.1671C79.7481 22.203 78.9431 21.751 77.9281 21.751C75.8011 21.751 73.8521 23.62 73.8521 26.02C73.8521 28.404 75.8011 30.257 77.9281 30.257C78.9431 30.257 79.7481 29.806 80.1671 29.29H80.2311V29.902C80.2311 31.529 79.3611 32.399 77.9591 32.399C76.8151 32.399 76.1061 31.577 75.8161 30.885L74.1891 31.562C74.6561 32.69 75.8971 34.075 77.9591 34.075C80.1501 34.075 82.0031 32.786 82.0031 29.645V22.009H80.2311V22.702ZM78.0891 28.583C76.8001 28.583 75.7211 27.504 75.7211 26.021C75.7211 24.523 76.8001 23.427 78.0891 23.427C79.3621 23.427 80.3601 24.522 80.3601 26.021C80.3601 27.503 79.3621 28.583 78.0891 28.583ZM102.47 17.499H97.9991V30H99.8641V25.264H102.469C104.537 25.264 106.57 23.767 106.57 21.382C106.57 18.997 104.538 17.499 102.47 17.499ZM102.518 23.524H99.8641V19.239H102.518C103.913 19.239 104.705 20.394 104.705 21.382C104.705 22.35 103.913 23.524 102.518 23.524ZM114.05 21.729C112.699 21.729 111.3 22.324 110.721 23.643L112.378 24.335C112.732 23.643 113.391 23.418 114.083 23.418C115.048 23.418 116.029 23.997 116.045 25.026V25.155C115.707 24.962 114.983 24.672 114.099 24.672C112.314 24.672 110.496 25.653 110.496 27.487C110.496 29.16 111.96 30.237 113.6 30.237C114.855 30.237 115.546 29.674 115.98 29.015H116.044V29.98H117.845V25.187C117.845 22.967 116.189 21.729 114.05 21.729ZM113.824 28.58C113.213 28.58 112.36 28.274 112.36 27.519C112.36 26.554 113.422 26.184 114.338 26.184C115.158 26.184 115.544 26.361 116.043 26.602C115.899 27.76 114.902 28.58 113.824 28.58ZM124.407 22.002L122.268 27.422H122.204L119.985 22.002H117.975L121.304 29.577L119.406 33.791H121.352L126.483 22.002H124.407ZM107.6 30H109.466V17.499H107.6V30Z" fill="white"/>
<path fill-rule="evenodd" clip-rule="evenodd" d="M74.2731 12.224C73.6831 12.831 72.9501 13.133 72.0731 13.133C71.1961 13.133 70.4631 12.83 69.8741 12.224C69.2841 11.618 68.9901 10.876 68.9901 9.99901C68.9901 9.12201 69.2841 8.38001 69.8741 7.77401C70.4631 7.16701 71.1961 6.86401 72.0731 6.86401C72.9451 6.86401 73.6771 7.16901 74.2691 7.77801C74.8611 8.38701 75.1571 9.12701 75.1571 9.99901C75.1571 10.877 74.8621 11.619 74.2731 12.224ZM70.4431 11.722C70.8871 12.172 71.4301 12.396 72.0731 12.396C72.7161 12.396 73.2591 12.171 73.7031 11.722C74.1471 11.272 74.3701 10.698 74.3701 10C74.3701 9.30201 74.1471 8.72701 73.7031 8.27801C73.2601 7.82801 72.7161 7.60401 72.0731 7.60401C71.4301 7.60401 70.8871 7.82901 70.4431 8.27801C70.0001 8.72801 69.7771 9.30201 69.7771 10C69.7771 10.698 70.0001 11.272 70.4431 11.722Z" fill="white"/>
<path d="M48.0821 10.243C48.0821 11.081 47.8341 11.748 47.3371 12.246C46.7731 12.838 46.0371 13.134 45.1331 13.134C44.2671 13.134 43.5301 12.834 42.9251 12.234C42.3191 11.633 42.0161 10.889 42.0161 10.001C42.0161 9.11201 42.3191 8.36801 42.9251 7.76801C43.5301 7.16701 44.2671 6.86701 45.1331 6.86701C45.5631 6.86701 45.9741 6.95101 46.3641 7.11801C46.7551 7.28601 47.0681 7.50901 47.3021 7.78801L46.7751 8.31601C46.3781 7.84101 45.8311 7.60401 45.1321 7.60401C44.5001 7.60401 43.9541 7.82601 43.4931 8.27001C43.0331 8.71401 42.8031 9.29001 42.8031 10C42.8031 10.71 43.0331 11.286 43.4941 11.731C43.9551 12.175 44.5011 12.397 45.1331 12.397C45.8031 12.397 46.3621 12.174 46.8091 11.727C47.0991 11.436 47.2671 11.031 47.3121 10.512H45.1331V9.79001H48.0401C48.0691 9.94701 48.0821 10.098 48.0821 10.243Z" fill="white"/>
<path d="M52.6921 7.73702H49.9601V9.63902H52.4241V10.36H49.9601V12.262H52.6921V13H49.1891V7.00002H52.6921V7.73702Z" fill="white"/>
<path d="M55.1711 13H55.9421V7.73702H57.6181V7.00002H53.4951V7.73702H55.1711V13Z" fill="white"/>
<path d="M60.6021 13V7.00002H61.3731V13H60.6021Z" fill="white"/>
<path d="M64.0201 13H64.7911V7.73702H66.4671V7.00002H62.3441V7.73702H64.0201V13Z" fill="white"/>
<path d="M76.2391 7.00002V13H77.0081V9.26202L76.9751 8.10602H77.0081L80.0591 13H80.8641V7.00002H80.0931V10.512L80.1261 11.668H80.0931L77.1771 7.00002H76.2391Z" fill="white"/>
<path fill-rule="evenodd" clip-rule="evenodd" d="M74.2731 12.224C73.6831 12.831 72.9501 13.133 72.0731 13.133C71.1961 13.133 70.4631 12.83 69.8741 12.224C69.2841 11.618 68.9901 10.876 68.9901 9.99901C68.9901 9.12201 69.2841 8.38001 69.8741 7.77401C70.4631 7.16701 71.1961 6.86401 72.0731 6.86401C72.9451 6.86401 73.6771 7.16901 74.2691 7.77801C74.8611 8.38701 75.1571 9.12701 75.1571 9.99901C75.1571 10.877 74.8621 11.619 74.2731 12.224ZM70.4431 11.722C70.8871 12.172 71.4301 12.396 72.0731 12.396C72.7161 12.396 73.2591 12.171 73.7031 11.722C74.1471 11.272 74.3701 10.698 74.3701 10C74.3701 9.30201 74.1471 8.72701 73.7031 8.27801C73.2601 7.82801 72.7161 7.60401 72.0731 7.60401C71.4301 7.60401 70.8871 7.82901 70.4431 8.27801C70.0001 8.72801 69.7771 9.30201 69.7771 10C69.7771 10.698 70.0001 11.272 70.4431 11.722Z" stroke="white" stroke-width="0.2" stroke-miterlimit="10"/>
<path d="M48.0821 10.243C48.0821 11.081 47.8341 11.748 47.3371 12.246C46.7731 12.838 46.0371 13.134 45.1331 13.134C44.2671 13.134 43.5301 12.834 42.9251 12.234C42.3191 11.633 42.0161 10.889 42.0161 10.001C42.0161 9.11201 42.3191 8.36801 42.9251 7.76801C43.5301 7.16701 44.2671 6.86701 45.1331 6.86701C45.5631 6.86701 45.9741 6.95101 46.3641 7.11801C46.7551 7.28601 47.0681 7.50901 47.3021 7.78801L46.7751 8.31601C46.3781 7.84101 45.8311 7.60401 45.1321 7.60401C44.5001 7.60401 43.9541 7.82601 43.4931 8.27001C43.0331 8.71401 42.8031 9.29001 42.8031 10C42.8031 10.71 43.0331 11.286 43.4941 11.731C43.9551 12.175 44.5011 12.397 45.1331 12.397C45.8031 12.397 46.3621 12.174 46.8091 11.727C47.0991 11.436 47.2671 11.031 47.3121 10.512H45.1331V9.79001H48.0401C48.0691 9.94701 48.0821 10.098 48.0821 10.243Z" stroke="white" stroke-width="0.2" stroke-miterlimit="10"/>
<path d="M52.6921 7.73702H49.9601V9.63902H52.4241V10.36H49.9601V12.262H52.6921V13H49.1891V7.00002H52.6921V7.73702Z" stroke="white" stroke-width="0.2" stroke-miterlimit="10"/>
<path d="M55.1711 13H55.9421V7.73702H57.6181V7.00002H53.4951V7.73702H55.1711V13Z" stroke="white" stroke-width="0.2" stroke-miterlimit="10"/>
<path d="M60.6021 13V7.00002H61.3731V13H60.6021Z" stroke="white" stroke-width="0.2" stroke-miterlimit="10"/>
<path d="M64.0201 13H64.7911V7.73702H66.4671V7.00002H62.3441V7.73702H64.0201V13Z" stroke="white" stroke-width="0.2" stroke-miterlimit="10"/>
<path d="M76.2391 7.00002V13H77.0081V9.26202L76.9751 8.10602H77.0081L80.0591 13H80.8641V7.00002H80.0931V10.512L80.1261 11.668H80.0931L77.1771 7.00002H76.2391Z" stroke="white" stroke-width="0.2" stroke-miterlimit="10"/>
<path d="M11.0991 7.53797C10.8081 7.84597 10.6361 8.32397 10.6361 8.94297V31.059C10.6361 31.679 10.8081 32.156 11.0991 32.464L11.1731 32.536L23.5621 20.147V20.001V19.855L11.1731 7.46497L11.0991 7.53797Z" fill="url(#paint0_linear_221_3041)"/>
<path d="M27.6921 24.279L23.5631 20.148V20.002V19.856L27.6931 15.726L27.7861 15.779L32.6791 18.559C34.0771 19.353 34.0771 20.652 32.6791 21.447L27.7861 24.227L27.6921 24.279Z" fill="url(#paint1_linear_221_3041)"/>
<path d="M27.7861 24.225L23.5631 20.001L11.0991 32.464C11.5601 32.952 12.3201 33.012 13.1771 32.525L27.7861 24.225Z" fill="url(#paint2_linear_221_3041)"/>
<path d="M27.7861 15.777L13.1781 7.47699C12.3211 6.98999 11.5611 7.05099 11.1001 7.53799L23.5631 20.001L27.7861 15.777Z" fill="url(#paint3_linear_221_3041)"/>
<path opacity="0.2" d="M27.6931 24.132L13.1781 32.379C12.3661 32.84 11.6401 32.81 11.1741 32.39L11.0991 32.465L11.1731 32.537C11.6391 32.957 12.3651 32.988 13.1771 32.526L27.7851 24.226L27.6931 24.132Z" fill="black"/>
<path opacity="0.12" d="M11.0991 32.318C10.8081 32.01 10.6361 31.532 10.6361 30.913V31.059C10.6361 31.678 10.8081 32.156 11.0991 32.464L11.1741 32.389L11.0991 32.318Z" fill="black"/>
<path opacity="0.12" d="M32.6791 21.299L27.6931 24.132L27.7861 24.225L32.6791 21.445C33.3781 21.048 33.7271 20.525 33.7271 20.002C33.6681 20.475 33.3121 20.939 32.6791 21.299Z" fill="black"/>
<path opacity="0.25" d="M13.1771 7.62299L32.6781 18.703C33.3121 19.063 33.6671 19.527 33.7261 20.001C33.7261 19.478 33.3771 18.954 32.6781 18.557L13.1771 7.47699C11.7791 6.68299 10.6361 7.34199 10.6361 8.94299V9.08999C10.6361 7.48899 11.7801 6.82899 13.1771 7.62299Z" fill="white"/>
</g>
<defs>
<linearGradient id="paint0_linear_221_3041" x1="22.4637" y1="8.70977" x2="5.68126" y2="25.4922" gradientUnits="userSpaceOnUse">
<stop stop-color="#00A0FF"/>
<stop offset="0.0066" stop-color="#00A1FF"/>
<stop offset="0.2601" stop-color="#00BEFF"/>
<stop offset="0.5122" stop-color="#00D2FF"/>
<stop offset="0.7604" stop-color="#00DFFF"/>
<stop offset="1" stop-color="#00E3FF"/>
</linearGradient>
<linearGradient id="paint1_linear_221_3041" x1="34.4984" y1="20.0015" x2="10.3015" y2="20.0015" gradientUnits="userSpaceOnUse">
<stop stop-color="#FFE000"/>
<stop offset="0.4087" stop-color="#FFBD00"/>
<stop offset="0.7754" stop-color="#FFA500"/>
<stop offset="1" stop-color="#FF9C00"/>
</linearGradient>
<linearGradient id="paint2_linear_221_3041" x1="25.491" y1="22.2962" x2="2.73267" y2="45.0545" gradientUnits="userSpaceOnUse">
<stop stop-color="#FF3A44"/>
<stop offset="1" stop-color="#C31162"/>
</linearGradient>
<linearGradient id="paint3_linear_221_3041" x1="7.96127" y1="0.176287" x2="18.1239" y2="10.3388" gradientUnits="userSpaceOnUse">
<stop stop-color="#32A071"/>
<stop offset="0.0685" stop-color="#2DA771"/>
<stop offset="0.4762" stop-color="#15CF74"/>
<stop offset="0.8009" stop-color="#06E775"/>
<stop offset="1" stop-color="#00F076"/>
</linearGradient>
<clipPath id="clip0_221_3041">
<rect width="135" height="40" fill="white" transform="translate(0.66407)"/>
</clipPath>
</defs>
</svg>
