<svg width="28" height="29" viewBox="0 0 28 29" fill="none" xmlns="http://www.w3.org/2000/svg">
<path d="M0 14.2133C0 21.9452 6.26801 28.2133 14 28.2133C21.732 28.2133 28 21.9452 28 14.2133C28 6.48127 21.732 0.213257 14 0.213257C6.26801 0.213257 0 6.48127 0 14.2133Z" fill="currentColor" fill-opacity="0.1"/>
<path d="M14 8.26324C15.925 8.26324 16.1875 8.26324 16.975 8.26324C17.675 8.26324 18.025 8.43824 18.2875 8.52574C18.6375 8.70074 18.9 8.78824 19.1625 9.05074C19.425 9.31324 19.6 9.57574 19.6875 9.92574C19.775 10.1882 19.8625 10.5382 19.95 11.2382C19.95 12.0257 19.95 12.2007 19.95 14.2132C19.95 16.2257 19.95 16.4007 19.95 17.1882C19.95 17.8882 19.775 18.2382 19.6875 18.5007C19.5125 18.8507 19.425 19.1132 19.1625 19.3757C18.9 19.6382 18.6375 19.8132 18.2875 19.9007C18.025 19.9882 17.675 20.0757 16.975 20.1632C16.1875 20.1632 16.0125 20.1632 14 20.1632C11.9875 20.1632 11.8125 20.1632 11.025 20.1632C10.325 20.1632 9.97499 19.9882 9.71249 19.9007C9.36249 19.7257 9.09999 19.6382 8.83749 19.3757C8.57499 19.1132 8.39999 18.8507 8.31249 18.5007C8.22499 18.2382 8.13749 17.8882 8.04999 17.1882C8.04999 16.4007 8.04999 16.2257 8.04999 14.2132C8.04999 12.2007 8.04999 12.0257 8.04999 11.2382C8.04999 10.5382 8.22499 10.1882 8.31249 9.92574C8.48749 9.57574 8.57499 9.31324 8.83749 9.05074C9.09999 8.78824 9.36249 8.61324 9.71249 8.52574C9.97499 8.43824 10.325 8.35074 11.025 8.26324C11.8125 8.26324 12.075 8.26324 14 8.26324ZM14 6.95074C11.9875 6.95074 11.8125 6.95074 11.025 6.95074C10.2375 6.95074 9.71249 7.12575 9.27499 7.30075C8.83749 7.47575 8.39999 7.73825 7.96249 8.17575C7.52499 8.61324 7.34999 8.96324 7.08749 9.48824C6.91249 9.92574 6.82499 10.4507 6.73749 11.2382C6.73749 12.0257 6.73749 12.2882 6.73749 14.2132C6.73749 16.2257 6.73749 16.4007 6.73749 17.1882C6.73749 17.9757 6.91249 18.5007 7.08749 18.9382C7.26249 19.3757 7.52499 19.8132 7.96249 20.2507C8.39999 20.6882 8.74999 20.8632 9.27499 21.1257C9.71249 21.3007 10.2375 21.3882 11.025 21.4757C11.8125 21.4757 12.075 21.4757 14 21.4757C15.925 21.4757 16.1875 21.4757 16.975 21.4757C17.7625 21.4757 18.2875 21.3007 18.725 21.1257C19.1625 20.9507 19.6 20.6882 20.0375 20.2507C20.475 19.8132 20.65 19.4632 20.9125 18.9382C21.0875 18.5007 21.175 17.9757 21.2625 17.1882C21.2625 16.4007 21.2625 16.1382 21.2625 14.2132C21.2625 12.2882 21.2625 12.0257 21.2625 11.2382C21.2625 10.4507 21.0875 9.92574 20.9125 9.48824C20.7375 9.05074 20.475 8.61324 20.0375 8.17575C19.6 7.73825 19.25 7.56325 18.725 7.30075C18.2875 7.12575 17.7625 7.03824 16.975 6.95074C16.1875 6.95074 16.0125 6.95074 14 6.95074Z" fill="currentColor"/>
<path d="M14 10.4507C11.9 10.4507 10.2375 12.1132 10.2375 14.2132C10.2375 16.3132 11.9 17.9757 14 17.9757C16.1 17.9757 17.7625 16.3132 17.7625 14.2132C17.7625 12.1132 16.1 10.4507 14 10.4507ZM14 16.6632C12.6875 16.6632 11.55 15.6132 11.55 14.2132C11.55 12.9007 12.6 11.7632 14 11.7632C15.3125 11.7632 16.45 12.8132 16.45 14.2132C16.45 15.5257 15.3125 16.6632 14 16.6632Z" fill="currentColor"/>
<path d="M17.85 11.2382C18.3332 11.2382 18.725 10.8465 18.725 10.3632C18.725 9.88 18.3332 9.48824 17.85 9.48824C17.3667 9.48824 16.975 9.88 16.975 10.3632C16.975 10.8465 17.3667 11.2382 17.85 11.2382Z" fill="currentColor"/>
</svg>
