<svg width="28" height="29" viewBox="0 0 28 29" fill="none" xmlns="http://www.w3.org/2000/svg">
<path d="M0 14.2133C0 21.9452 6.26801 28.2133 14 28.2133C21.732 28.2133 28 21.9452 28 14.2133C28 6.48127 21.732 0.213257 14 0.213257C6.26801 0.213257 0 6.48127 0 14.2133Z" fill="currentColor" fill-opacity="0.1"/>
<path d="M10.15 21.2133H7.175V11.8508H10.15V21.2133ZM8.6625 10.5383C7.7 10.5383 7 9.83826 7 8.87576C7 7.91326 7.7875 7.21326 8.6625 7.21326C9.625 7.21326 10.325 7.91326 10.325 8.87576C10.325 9.83826 9.625 10.5383 8.6625 10.5383ZM21 21.2133H18.025V16.1383C18.025 14.6508 17.4125 14.2133 16.5375 14.2133C15.6625 14.2133 14.7875 14.9133 14.7875 16.2258V21.2133H11.8125V11.8508H14.6125V13.1633C14.875 12.5508 15.925 11.5883 17.4125 11.5883C19.075 11.5883 20.825 12.5508 20.825 15.4383V21.2133H21Z" fill="currentColor"/>
</svg>
