<svg id="RECOM_Black" data-name="RECOM Black" xmlns="http://www.w3.org/2000/svg" width="100%" height="100%" viewBox="0 0 1366 384.367">
  <path id="Path_174" data-name="Path 174" d="M261.2,337.994,182.4,236.329H101.469V337.994H83.089V92.6h103.9c53.363,0,88.35,28.75,88.35,69.766v.7c0,41.02-30.745,64.506-72.446,70.116l81.636,104.819Zm-4.238-174.935c0-32.954-26.152-53.637-71.033-53.637H101.469V219.85h83.4c41.352,0,72.1-20.684,72.1-56.088Z" transform="translate(-83.089 -23.077)"/>
  <path id="Path_175" data-name="Path 175" d="M318.768,337.994V92.6H494.763v16.826H337.142v96.41H478.859v16.826H337.142v98.509H496.53v16.826Z" transform="translate(-63.276 -23.077)"/>
  <path id="Path_176" data-name="Path 176" d="M526.783,216.382v-.7c0-71.535,55.484-127.646,130.406-127.646,50.536,0,83.053,21.042,104.962,51.2l-51.6,39.627C696.42,161.325,680.161,150.1,656.484,150.1c-34.631,0-59.016,29.107-59.016,64.878v.7c0,36.822,24.385,65.576,59.016,65.576,25.8,0,40.993-11.922,55.839-29.809l51.6,36.471c-23.326,31.914-54.78,55.407-109.555,55.407C583.684,343.324,526.783,289.671,526.783,216.382Z" transform="translate(-45.79 -23.461)"/>
  <path id="Path_177" data-name="Path 177" d="M1100.615,92.6h72.451l59.018,95,59.017-95h72.448v245.4h-68.208V197.067l-63.257,96.054h-1.413l-62.907-95.356V337.994h-67.15Z" transform="translate(2.451 -23.077)"/>
  <path id="Path_178" data-name="Path 178" d="M910.172,101.27V85.913A131.623,131.623,0,0,0,789.69,196.769L726.835,216.23l61.3-.027h.276v.027h15.648A115.963,115.963,0,0,1,910.172,101.27Z" transform="translate(-28.973 -24.121)"/>
  <path id="Path_179" data-name="Path 179" d="M799.575,214.677H783.9a131.053,131.053,0,0,0,31.97,77.615l-.24.362a132.46,132.46,0,0,0,12.814,12.825,131.052,131.052,0,0,0,66.908,30.946l19.426,62.74-.027-61.3V337.6h.007V321.947A115.968,115.968,0,0,1,799.575,214.677Z" transform="translate(-24.176 -14.798)"/>
  <path id="Path_180" data-name="Path 180" d="M1031.182,205.936l-8.793,0H1020.3c0,.263.011.524.011.787A115.971,115.971,0,0,1,913.157,322.36v15.68a131.006,131.006,0,0,0,121.136-112.516l63.231-19.616Z" transform="translate(-13.309 -15.053)"/>
  <path id="Path_181" data-name="Path 181" d="M1020.607,211.649h15.306A131.615,131.615,0,0,0,924.147,91.821L904.483,28.468l.028,64.1v13.115c.189,0,.375-.008.567-.008A115.97,115.97,0,0,1,1020.607,211.649Z" transform="translate(-14.038 -28.468)"/>
  <path id="Path_182" data-name="Path 182" d="M808.686,214.142H823.7a89.438,89.438,0,0,1,79.591-88.31V110.741A104.457,104.457,0,0,0,808.686,214.142Z" transform="translate(-22.092 -22.177)"/>
  <path id="Path_183" data-name="Path 183" d="M993.792,206.725a89.45,89.45,0,0,1-80.635,89.008V310.8a104.454,104.454,0,0,0,95.64-104.078c0-.242-.008-.481-.009-.723h.087l-.078-.058,11.5-.006H993.772C993.776,206.2,993.792,206.461,993.792,206.725Z" transform="translate(-13.309 -14.905)"/>
  <path id="Path_184" data-name="Path 184" d="M824.085,214.677H809.013A104.451,104.451,0,0,0,912.64,310.435V295.423A89.441,89.441,0,0,1,824.085,214.677Z" transform="translate(-22.063 -14.192)"/>
  <path id="Path_185" data-name="Path 185" d="M905.078,126.21a89.445,89.445,0,0,1,88.874,79.451h15.1A104.461,104.461,0,0,0,905.078,111.2c-.192,0-.378.007-.567.008V99.7h-.028v26.526C904.682,126.224,904.878,126.21,905.078,126.21Z" transform="translate(-14.038 -23.026)"/>
  <path id="Path_186" data-name="Path 186" d="M904.185,111.637V100.079a115.965,115.965,0,0,0-106.118,114.96H809.58A104.455,104.455,0,0,1,904.185,111.637Z" transform="translate(-22.984 -23.015)"/>
  <path id="Path_187" data-name="Path 187" d="M904.185,111.637V100.079a115.965,115.965,0,0,0-106.118,114.96H809.58A104.455,104.455,0,0,1,904.185,111.637Z" transform="translate(-22.984 -23.015)"/>
  <path id="Path_188" data-name="Path 188" d="M809.909,214.677H798.358a115.967,115.967,0,0,0,115.178,107.27V310.435A104.453,104.453,0,0,1,809.909,214.677Z" transform="translate(-22.96 -14.249)"/>
  <path id="Path_189" data-name="Path 189" d="M809.909,214.677H798.358a115.967,115.967,0,0,0,115.178,107.27V310.435A104.453,104.453,0,0,1,809.909,214.677Z" transform="translate(-22.96 -14.249)"/>
  <path id="Path_190" data-name="Path 190" d="M1008.875,206h-.087c0,.242.009.482.009.723A104.454,104.454,0,0,1,913.157,310.8v11.554a115.971,115.971,0,0,0,107.154-115.633c0-.263-.008-.524-.011-.787l-11.5.006Z" transform="translate(-13.309 -14.963)"/>
  <path id="Path_191" data-name="Path 191" d="M1008.875,206h-.087c0,.242.009.482.009.723A104.454,104.454,0,0,1,913.157,310.8v11.554a115.971,115.971,0,0,0,107.154-115.633c0-.263-.008-.524-.011-.787l-11.5.006Z" transform="translate(-13.309 -14.963)"/>
  <path id="Path_192" data-name="Path 192" d="M905.077,111.2a104.462,104.462,0,0,1,103.971,94.457H1020.6A115.967,115.967,0,0,0,905.077,99.692c-.193,0-.378.006-.569.008v11.513C904.7,111.211,904.885,111.2,905.077,111.2Z" transform="translate(-14.036 -23.027)"/>
  <path id="Path_193" data-name="Path 193" d="M905.077,111.2a104.462,104.462,0,0,1,103.971,94.457H1020.6A115.967,115.967,0,0,0,905.077,99.692c-.193,0-.378.006-.569.008v11.513C904.7,111.211,904.885,111.2,905.077,111.2Z" transform="translate(-14.036 -23.027)"/>
  <path id="Path_194" data-name="Path 194" d="M847.387,209.443q21.627,7.486,43.264,14.947a2.452,2.452,0,0,1,1.733,1.705Q899.8,247.682,907.3,269.24c.13.377.285.747.552,1.441L950.789,166l-104.7,42.95C846.763,209.206,847.071,209.334,847.387,209.443Zm93.479-33.907.152.232q-.886.884-1.771,1.77Q918.068,198.72,896.9,219.916a1.854,1.854,0,0,1-2.264.545c-10.813-3.788-21.645-7.516-32.47-11.262-.5-.171-.988-.359-1.782-.648C887.393,197.472,914.128,186.5,940.866,175.536Z" transform="translate(-18.947 -17.957)"/>
  <path id="Path_195" data-name="Path 195" d="M1014.079,205.938h0Z" transform="translate(-5.001 -14.537)"/>
</svg>
