<?xml version="1.0" encoding="utf-8"?>
<!-- Generator: Adobe Illustrator 24.0.1, SVG Export Plug-In . SVG Version: 6.00 Build 0)  -->
<svg version="1.1" id="Слой_1" xmlns="http://www.w3.org/2000/svg" xmlns:xlink="http://www.w3.org/1999/xlink" x="0px" y="0px"
	 viewBox="0 0 368 109" style="enable-background:new 0 0 368 109;" xml:space="preserve">
<style type="text/css">
	.st0{fill-rule:evenodd;clip-rule:evenodd;fill:#3891FB;}
</style>
<g>
	<path d="M110.69,40.75h24.35c3.28,0,6.12,0.51,8.5,1.54c0.48,0.19,0.86,0.35,1.13,0.48c0.4,0.22,0.82,0.49,1.27,0.79
		c2.13,1.3,3.64,3.13,4.54,5.5c0.48,1.27,0.72,2.61,0.72,4.03v0.31c0,1.71-0.36,3.33-1.08,4.85c-0.22,0.43-0.5,0.91-0.84,1.44
		c-0.29,0.38-0.63,0.79-1.03,1.22c-0.19,0.22-0.38,0.42-0.58,0.6l-0.24,0.24l-0.19,0.14l-0.36,0.29c-0.29,0.21-0.65,0.45-1.08,0.72
		c-0.06,0.03-0.13,0.07-0.19,0.12c-0.43,0.22-0.82,0.42-1.18,0.6c-0.18,0.08-0.34,0.16-0.5,0.24c-0.62,0.26-1.28,0.49-1.97,0.7
		c1.98,2.05,3.35,3.54,4.08,4.47c0.5,0.56,0.98,1.11,1.46,1.66c0.91,1.06,1.78,2.04,2.62,2.95c0.26,0.24,0.41,0.41,0.46,0.5h-10.37
		c-0.59,0-1.06-0.06-1.39-0.19c-0.1-0.05-0.18-0.1-0.26-0.14c-0.08-0.05-0.17-0.1-0.26-0.17c-0.34-0.22-0.71-0.6-1.13-1.13
		c-1.52-1.81-3.13-3.79-4.83-5.93l-0.84-1.08c-0.05,0-0.14,0.02-0.29,0.05c-0.99,0-3.98,0.02-8.96,0.05h-6.1v5.45
		c0,1.02-0.44,1.89-1.32,2.59c-0.53,0.37-1.14,0.55-1.83,0.55h-5.5V44.11c0-0.54,0.06-0.98,0.19-1.3c0.06-0.19,0.18-0.42,0.34-0.67
		c0.11-0.16,0.25-0.31,0.41-0.46C109.11,41.06,109.86,40.75,110.69,40.75z M116.14,49.42v7.56h19.67c1.54,0,2.71-0.26,3.51-0.79
		c0.58-0.37,1-0.86,1.27-1.46c0.22-0.46,0.34-0.99,0.34-1.58c0-1.17-0.54-2.15-1.61-2.93c-0.16-0.11-0.33-0.21-0.5-0.29
		c-0.05-0.02-0.1-0.04-0.14-0.07c-0.29-0.14-0.73-0.27-1.32-0.38c-0.19,0-0.46-0.02-0.79-0.05H116.14z"/>
	<path d="M191.93,40.75c1.04,0,1.89,0.39,2.55,1.18c0.3,0.34,0.52,0.78,0.65,1.34c0.05,0.19,0.07,0.46,0.07,0.82v4.92h-30.42v4.83
		h21.3v7.25h-21.25l-0.02,0.02v5.11h30.38c0.02,0,0.02,0.01,0.02,0.02v4.83c0,0.74-0.27,1.42-0.82,2.06
		c-0.34,0.34-0.58,0.54-0.72,0.6c-0.48,0.3-1.07,0.46-1.78,0.46h-32.73c-0.22,0-0.53-0.06-0.91-0.19c-0.82-0.3-1.43-0.85-1.83-1.63
		c-0.19-0.45-0.29-0.93-0.29-1.44V54.05c-0.02-0.82-0.02-3.47-0.02-7.97v-2.21c0-0.53,0.17-1.08,0.5-1.66
		c0.35-0.51,0.77-0.89,1.25-1.13c0.35-0.16,0.62-0.25,0.79-0.26c0.1-0.03,0.24-0.06,0.43-0.07H191.93z"/>
	<path d="M212.41,40.75h25.72c1.18,0,2.12,0.51,2.81,1.54c0.3,0.53,0.46,1.08,0.46,1.66v5.48h-28.84c-1.86,0-3.38,0.75-4.56,2.26
		c-0.75,0.99-1.13,2.1-1.13,3.34v4.92c0,1.47,0.52,2.77,1.56,3.89c0.5,0.46,0.9,0.78,1.2,0.94c0.29,0.19,0.61,0.34,0.96,0.43
		c0.67,0.24,1.18,0.36,1.54,0.36h29.2v5.55c0,0.88-0.39,1.68-1.18,2.4c-0.61,0.46-1.28,0.7-2.02,0.7h-25.77
		c-2.95,0-5.7-0.9-8.26-2.71c-0.43-0.3-1.04-0.82-1.83-1.56c-0.82-0.88-1.37-1.57-1.66-2.06c-0.48-0.74-0.84-1.38-1.08-1.92
		c-0.9-1.86-1.34-3.94-1.34-6.24v-4.42c0-2.51,0.54-4.78,1.63-6.8c0.29-0.58,0.68-1.23,1.18-1.97c0.13-0.14,0.26-0.3,0.41-0.48
		c0.24-0.29,0.51-0.6,0.82-0.94c0.85-0.83,1.54-1.41,2.06-1.73c0.9-0.64,1.79-1.15,2.67-1.54C208.79,41.11,210.6,40.75,212.41,40.75
		z"/>
	<path d="M258.88,40.75h17.22c2.9,0,5.6,0.87,8.12,2.62c0.42,0.26,0.94,0.67,1.56,1.25c0.1,0.08,0.2,0.17,0.31,0.26
		c0.78,0.9,1.35,1.58,1.71,2.07c1.68,2.48,2.52,5.22,2.52,8.21v4.63c0,3.54-1.15,6.68-3.43,9.44c-0.72,0.78-1.31,1.34-1.78,1.68
		c-0.8,0.67-1.62,1.22-2.47,1.66c-2.08,1.09-4.27,1.63-6.58,1.63h-17.12c-3.09,0-5.94-0.95-8.55-2.86
		c-0.43-0.34-1.04-0.89-1.82-1.66c-0.78-0.85-1.32-1.54-1.61-2.06c-1.52-2.35-2.28-4.93-2.28-7.73v-4.83c0-3.28,1.05-6.26,3.15-8.93
		c0.3-0.35,0.8-0.9,1.49-1.63c0.69-0.59,1.28-1.03,1.78-1.32C253.52,41.56,256.12,40.75,258.88,40.75z M253.33,55.28v4.37
		c0,1.19,0.25,2.17,0.74,2.95c0.1,0.29,0.38,0.7,0.86,1.22c1.14,1.15,2.51,1.73,4.13,1.73h16.83c1.87,0,3.39-0.76,4.56-2.28
		c0.34-0.43,0.6-0.87,0.79-1.32c0.26-0.62,0.38-1.42,0.38-2.4v-4.08c0-1.04-0.11-1.82-0.34-2.33c-0.5-1.26-1.33-2.24-2.5-2.93
		c-0.88-0.53-1.83-0.79-2.86-0.79h-16.93c-1.86,0-3.39,0.78-4.61,2.35c-0.34,0.48-0.57,0.9-0.7,1.27
		C253.46,53.64,253.33,54.38,253.33,55.28z"/>
	<path d="M295.33,40.75h7.61c1.2,0,2.08,0.58,2.64,1.75c0.16,0.24,1.19,2.03,3.1,5.35c2.77,4.79,5.58,9.65,8.43,14.58
		c0.11,0.19,0.48,0.82,1.1,1.9h0.02c0.1-0.18,1.39-2.43,3.89-6.75c3.68-6.34,5.62-9.7,5.81-10.09c0.16-0.24,1.22-2.07,3.19-5.5
		c0.37-0.53,0.84-0.9,1.42-1.1c0.27-0.1,0.62-0.14,1.03-0.14h7.54c0.02,0,0.02,0.01,0.02,0.02v30.57c0,1.1-0.47,1.94-1.42,2.5
		c-0.42,0.24-0.85,0.36-1.3,0.36h-5.88c-0.02,0-0.02-0.01-0.02-0.02V56.84c-0.32,0.53-1.98,3.4-4.99,8.62l-3.65,6.32
		c-0.58,0.82-1.33,1.22-2.26,1.22h-6.8c-0.9,0-1.63-0.38-2.21-1.15c-0.1-0.13-1.04-1.76-2.83-4.9c-0.11-0.18-1.45-2.48-4.01-6.92
		c-0.91-1.58-1.53-2.65-1.85-3.19v17.34c0,0.02-0.01,0.02-0.02,0.02h-5.88c-0.78,0-1.47-0.33-2.06-0.98
		c-0.43-0.53-0.65-1.1-0.65-1.73V40.78C295.3,40.76,295.31,40.75,295.33,40.75z"/>
</g>
<path class="st0" d="M93.63,56.35c0,0-1.11-1.38-1.54-1.72c-0.01-0.01-0.03-0.02-0.04-0.03l0.04,0.03L69.19,31.7
	c-2.79-3.11-6.31-4.97-10.81-4.97c-4.29,0-8.12,1.81-10.89,4.66L24.05,54.8c-2.72,2.75-4.54,6.82-4.54,11
	c0,4.15,2.03,7.58,4.72,10.33l11.44,11.39l34.65-34.64c2.51-2.47,5.89-3.85,9.4-3.85c2.67,0,5.27,0.79,7.49,2.27l2.31,1.57
	c-2.15-1.16-4.6-1.82-7.21-1.82c-4.19,0-8.12,1.6-10.87,4.34L59.8,67.02l20.51,20.51l11.75-11.76c2.56-2.73,4.41-6.25,4.41-10.29
	C96.47,61.42,95.02,58.26,93.63,56.35z"/>
</svg>
