<svg width="100%" height="100%" viewBox="0 0 20 20" fill="none" xmlns="http://www.w3.org/2000/svg">
<path d="M15.0002 3.33334H5.00016C4.07969 3.33334 3.3335 4.07954 3.3335 5.00001V15C3.3335 15.9205 4.07969 16.6667 5.00016 16.6667H15.0002C15.9206 16.6667 16.6668 15.9205 16.6668 15V5.00001C16.6668 4.07954 15.9206 3.33334 15.0002 3.33334Z" stroke="currentColor" stroke-width="1.5" stroke-linecap="round" stroke-linejoin="round"/>
<path d="M7.5 13.3333V6.66666H10.8333C11.2754 6.66666 11.6993 6.84225 12.0118 7.15481C12.3244 7.46737 12.5 7.8913 12.5 8.33332C12.5 8.77535 12.3244 9.19927 12.0118 9.51183C11.6993 9.82439 11.2754 9.99999 10.8333 9.99999H7.5" stroke="currentColor" stroke-width="1.5" stroke-linecap="round" stroke-linejoin="round"/>
</svg>
