<svg width="100%" height="100%" viewBox="0 0 20 20" fill="none" xmlns="http://www.w3.org/2000/svg">
<path d="M10 13.3334C11.3807 13.3334 12.5 12.2141 12.5 10.8333C12.5 9.45263 11.3807 8.33334 10 8.33334C8.61929 8.33334 7.5 9.45263 7.5 10.8333C7.5 12.2141 8.61929 13.3334 10 13.3334Z" stroke="currentColor" stroke-width="1.5" stroke-linecap="round" stroke-linejoin="round"/>
<path d="M11.8058 8.75C12.4075 7.46833 12.7692 6.21417 12.8917 4.98833C13.075 3.63 12.2567 2.5 10 2.5C7.74334 2.5 6.925 3.63083 7.10834 4.98833C7.23084 6.21417 7.5925 7.46833 8.19417 8.75" stroke="currentColor" stroke-width="1.5" stroke-linecap="round" stroke-linejoin="round"/>
<path d="M10.9741 13.9592C11.7825 15.1217 12.6883 16.0617 13.6883 16.7809C14.7716 17.6192 16.1608 17.475 17.2891 15.5209C18.4175 13.5667 17.8475 12.2925 16.5808 11.7725C15.4575 11.2659 14.1908 10.9517 12.7791 10.8325" stroke="currentColor" stroke-width="1.5" stroke-linecap="round" stroke-linejoin="round"/>
<path d="M7.22013 10.8325C5.8093 10.9517 4.54263 11.2659 3.42013 11.7725C2.1518 12.2917 1.5818 13.5667 2.71013 15.5208C3.83846 17.475 5.2268 17.6183 6.31096 16.7808C7.31096 16.0617 8.2168 15.1217 9.02597 13.9592" stroke="currentColor" stroke-width="1.5" stroke-linecap="round" stroke-linejoin="round"/>
</svg>
