<svg width="32" height="32" viewBox="0 0 32 32" fill="none" xmlns="http://www.w3.org/2000/svg">
<g filter="url(#filter0_b_235_2308)">
<circle cx="16" cy="16" r="16" fill="#181818"/>
</g>
<g clip-path="url(#clip0_235_2308)">
<path d="M22.5454 17.4545L20.3636 15.2727H15.2727C15.0798 15.2727 14.8948 15.1961 14.7584 15.0597C14.622 14.9233 14.5454 14.7383 14.5454 14.5454V10.1818C14.5454 9.98892 14.622 9.80393 14.7584 9.66754C14.8948 9.53115 15.0798 9.45453 15.2727 9.45453H21.8181C22.011 9.45453 22.196 9.53115 22.3324 9.66754C22.4688 9.80393 22.5454 9.98892 22.5454 10.1818V17.4545Z" stroke="white" stroke-width="1.09091" stroke-linecap="round" stroke-linejoin="round"/>
<path d="M17.4545 18.1818V19.6363C17.4545 19.8292 17.3779 20.0142 17.2415 20.1506C17.1051 20.287 16.9201 20.3636 16.7272 20.3636H11.6363L9.45451 22.5454V15.2727C9.45451 15.0798 9.53114 14.8948 9.66753 14.7584C9.80392 14.622 9.9889 14.5454 10.1818 14.5454H11.6363" stroke="white" stroke-width="1.09091" stroke-linecap="round" stroke-linejoin="round"/>
</g>
<defs>
<filter id="filter0_b_235_2308" x="-8.00001" y="-8.00001" width="48" height="48" filterUnits="userSpaceOnUse" color-interpolation-filters="sRGB">
<feFlood flood-opacity="0" result="BackgroundImageFix"/>
<feGaussianBlur in="BackgroundImage" stdDeviation="4"/>
<feComposite in2="SourceAlpha" operator="in" result="effect1_backgroundBlur_235_2308"/>
<feBlend mode="normal" in="SourceGraphic" in2="effect1_backgroundBlur_235_2308" result="shape"/>
</filter>
<clipPath id="clip0_235_2308">
<rect width="17.4546" height="17.4546" fill="white" transform="translate(7.27278 7.2728)"/>
</clipPath>
</defs>
</svg>
