<svg width="32" height="32" viewBox="0 0 32 32" fill="none" xmlns="http://www.w3.org/2000/svg">
<g filter="url(#filter0_b_235_2322)">
<circle cx="16" cy="16" r="16" fill="#181818"/>
</g>
<g clip-path="url(#clip0_235_2322)">
<path d="M18.1818 14.5454L21.493 12.8901C21.6039 12.8347 21.7271 12.8085 21.8509 12.8141C21.9747 12.8197 22.095 12.8568 22.2004 12.9219C22.3058 12.9871 22.3928 13.0781 22.4532 13.1863C22.5136 13.2945 22.5453 13.4163 22.5454 13.5403V18.4595C22.5453 18.5835 22.5136 18.7053 22.4532 18.8135C22.3928 18.9217 22.3058 19.0127 22.2004 19.0779C22.095 19.143 21.9747 19.1801 21.8509 19.1857C21.7271 19.1913 21.6039 19.1651 21.493 19.1097L18.1818 17.4545V14.5454Z" stroke="white" stroke-width="1.09091" stroke-linecap="round" stroke-linejoin="round"/>
<path d="M16.7273 11.6363H10.9091C10.1058 11.6363 9.45456 12.2875 9.45456 13.0908V18.909C9.45456 19.7124 10.1058 20.3636 10.9091 20.3636H16.7273C17.5306 20.3636 18.1818 19.7124 18.1818 18.909V13.0908C18.1818 12.2875 17.5306 11.6363 16.7273 11.6363Z" stroke="white" stroke-width="1.09091" stroke-linecap="round" stroke-linejoin="round"/>
</g>
<defs>
<filter id="filter0_b_235_2322" x="-8.00001" y="-8.00001" width="48" height="48" filterUnits="userSpaceOnUse" color-interpolation-filters="sRGB">
<feFlood flood-opacity="0" result="BackgroundImageFix"/>
<feGaussianBlur in="BackgroundImage" stdDeviation="4"/>
<feComposite in2="SourceAlpha" operator="in" result="effect1_backgroundBlur_235_2322"/>
<feBlend mode="normal" in="SourceGraphic" in2="effect1_backgroundBlur_235_2322" result="shape"/>
</filter>
<clipPath id="clip0_235_2322">
<rect width="17.4546" height="17.4546" fill="white" transform="translate(7.27261 7.2728)"/>
</clipPath>
</defs>
</svg>
