<svg width="100%" height="100%" viewBox="0 0 24 24" fill="none" xmlns="http://www.w3.org/2000/svg">
<path d="M19.4998 13.5719L11.9998 20.9999L4.49981 13.5719C4.00512 13.0905 3.61546 12.5119 3.35536 11.8725C3.09527 11.2332 2.97037 10.5469 2.98855 9.85684C3.00673 9.16682 3.16758 8.48804 3.46097 7.86324C3.75436 7.23844 4.17395 6.68116 4.6933 6.22648C5.21265 5.77181 5.82052 5.42959 6.47862 5.22138C7.13673 5.01318 7.83082 4.94349 8.51718 5.0167C9.20354 5.08992 9.86731 5.30446 10.4667 5.64681C11.0661 5.98916 11.5881 6.4519 11.9998 7.0059C12.4133 6.45592 12.9359 5.99722 13.5349 5.65851C14.1339 5.31979 14.7963 5.10835 15.4807 5.03742C16.1652 4.96649 16.8569 5.0376 17.5126 5.24629C18.1683 5.45499 18.7738 5.79678 19.2914 6.25027C19.8089 6.70376 20.2272 7.25919 20.5202 7.88179C20.8132 8.5044 20.9746 9.18079 20.9941 9.86861C21.0137 10.5564 20.8911 11.2409 20.6339 11.8792C20.3768 12.5174 19.9907 13.0957 19.4998 13.5779" stroke="currentColor" stroke-width="1" stroke-linecap="round" stroke-linejoin="round"/>
</svg>
