<?xml version="1.0" standalone="no"?>
<!DOCTYPE svg PUBLIC "-//W3C//DTD SVG 20010904//EN"
 "http://www.w3.org/TR/2001/REC-SVG-20010904/DTD/svg10.dtd">
<svg version="1.0" xmlns="http://www.w3.org/2000/svg"
 width="1024.000000pt" height="1024.000000pt" viewBox="0 0 1024.000000 1024.000000"
 preserveAspectRatio="xMidYMid meet">
<metadata>
Created by potrace 1.14, written by Peter Selinger 2001-2017
</metadata>
<g transform="translate(0.000000,1024.000000) scale(0.100000,-0.100000)"
fill="#000000" stroke="none">
<path d="M4995 7619 c-182 -25 -380 -102 -541 -209 -62 -42 -303 -276 -1109
-1079 -566 -564 -1050 -1049 -1076 -1077 -104 -115 -207 -296 -259 -455 -51
-156 -63 -244 -57 -434 5 -201 20 -261 101 -430 96 -199 136 -245 695 -807
283 -285 520 -518 525 -518 6 0 670 659 1476 1463 1594 1592 1528 1531 1728
1617 140 60 237 81 400 87 273 10 460 -45 707 -210 118 -79 121 -82 38 -47
-400 168 -878 114 -1243 -140 -50 -35 -247 -224 -590 -566 l-515 -514 850
-850 850 -850 506 507 c329 330 529 539 572 598 80 107 176 295 214 420 26 86
27 99 27 310 0 206 -2 226 -26 315 -37 137 -81 244 -140 346 -50 84 -112 148
-1118 1159 -586 589 -1094 1094 -1130 1123 -132 109 -290 185 -459 223 -102
22 -325 32 -426 18z"/>
</g>
</svg>
